<svg width="178" height="177" viewBox="0 0 178 177" fill="none" xmlns="http://www.w3.org/2000/svg">
<path d="M73.9458 126.532H89.3186H104.691L89.3186 103.093L73.9458 126.532Z" fill="url(#paint0_linear_102_8)"/>
<path fill-rule="evenodd" clip-rule="evenodd" d="M140.628 120.606H118.185L89.5677 67.4923L67.8216 108.545L61.2866 120.606H38.0219L76.0495 52.9659H103.634L140.628 120.606Z" fill="white"/>
<path fill-rule="evenodd" clip-rule="evenodd" d="M88.9772 166.38C131.989 166.38 166.857 131.512 166.857 88.5C166.857 45.4881 131.989 10.62 88.9772 10.62C45.9653 10.62 11.0972 45.4881 11.0972 88.5C11.0972 131.512 45.9653 166.38 88.9772 166.38ZM88.9772 177C137.854 177 177.477 137.377 177.477 88.5C177.477 39.6228 137.854 0 88.9772 0C40.1 0 0.477234 39.6228 0.477234 88.5C0.477234 137.377 40.1 177 88.9772 177Z" fill="url(#paint1_linear_102_8)"/>
<defs>
<linearGradient id="paint0_linear_102_8" x1="105.304" y1="146.329" x2="102.44" y2="94.2331" gradientUnits="userSpaceOnUse">
<stop stop-color="#0338D1"/>
<stop offset="0.354167" stop-color="#1CFCFC"/>
<stop offset="0.885417" stop-color="#0338D1"/>
</linearGradient>
<linearGradient id="paint1_linear_102_8" x1="-17.8168" y1="-117.377" x2="38.8866" y2="249.739" gradientUnits="userSpaceOnUse">
<stop stop-color="#0338D1"/>
<stop offset="0.354167" stop-color="#1CFCFC"/>
<stop offset="0.885417" stop-color="#0338D1"/>
</linearGradient>
</defs>
</svg>
